ISO-10303-21;
HEADER;
FILE_DESCRIPTION(('sapphire waveguide B-Rep'), '2;1');
FILE_NAME('sapphire_waveguide.step', '2026-08-13T00:00:00', (''), (''), '', '', '');
FILE_SCHEMA(('AUTOMOTIVE_DESIGN { 1 0 10303 214 1 1 1 1 }'));
ENDSEC;
DATA;
#1 = CARTESIAN_POINT('v0', (0.000000000000000, 0.000000000000000, 0.000000000000000));
#2 = CARTESIAN_POINT('v1', (0.000350000000000, 0.000000000000000, 0.000000000000000));
#3 = CARTESIAN_POINT('v2', (0.000350000000000, 0.000005000000000, 0.000000000000000));
#4 = CARTESIAN_POINT('v3', (0.000000000000000, 0.000005000000000, 0.000000000000000));
#5 = CARTESIAN_POINT('v4', (0.000000000000000, 0.000000000000000, 0.000001500000000));
#6 = CARTESIAN_POINT('v5', (0.000350000000000, 0.000000000000000, 0.000001500000000));
#7 = CARTESIAN_POINT('v6', (0.000350000000000, 0.000005000000000, 0.000001500000000));
#8 = CARTESIAN_POINT('v7', (0.000000000000000, 0.000005000000000, 0.000001500000000));
#9 = VERTEX_POINT('V0', #1);
#10 = VERTEX_POINT('V1', #2);
#11 = VERTEX_POINT('V2', #3);
#12 = VERTEX_POINT('V3', #4);
#13 = VERTEX_POINT('V4', #5);
#14 = VERTEX_POINT('V5', #6);
#15 = VERTEX_POINT('V6', #7);
#16 = VERTEX_POINT('V7', #8);
#17 = CARTESIAN_POINT('e0_origin', (0.000000000000000, 0.000000000000000, 0.000000000000000));
#18 = DIRECTION('e0_dir', (1.000000000000000, 0.000000000000000, 0.000000000000000));
#19 = VECTOR('e0_vec', #18, 1.0);
#17 = LINE('e0_line', #17, #19);
#20 = EDGE_CURVE('e0', #9, #10, #17, .T.);
#21 = CARTESIAN_POINT('e1_origin', (0.000350000000000, 0.000000000000000, 0.000000000000000));
#22 = DIRECTION('e1_dir', (0.000000000000000, 1.000000000000000, 0.000000000000000));
#23 = VECTOR('e1_vec', #22, 1.0);
#21 = LINE('e1_line', #21, #23);
#24 = EDGE_CURVE('e1', #10, #11, #21, .T.);
#25 = CARTESIAN_POINT('e2_origin', (0.000350000000000, 0.000005000000000, 0.000000000000000));
#26 = DIRECTION('e2_dir', (-1.000000000000000, 0.000000000000000, 0.000000000000000));
#27 = VECTOR('e2_vec', #26, 1.0);
#25 = LINE('e2_line', #25, #27);
#28 = EDGE_CURVE('e2', #11, #12, #25, .T.);
#29 = CARTESIAN_POINT('e3_origin', (0.000000000000000, 0.000005000000000, 0.000000000000000));
#30 = DIRECTION('e3_dir', (0.000000000000000, -1.000000000000000, 0.000000000000000));
#31 = VECTOR('e3_vec', #30, 1.0);
#29 = LINE('e3_line', #29, #31);
#32 = EDGE_CURVE('e3', #12, #9, #29, .T.);
#33 = CARTESIAN_POINT('e4_origin', (0.000000000000000, 0.000000000000000, 0.000000000000000));
#34 = DIRECTION('e4_dir', (0.000000000000000, 0.000000000000000, 1.000000000000000));
#35 = VECTOR('e4_vec', #34, 1.0);
#33 = LINE('e4_line', #33, #35);
#36 = EDGE_CURVE('e4', #9, #13, #33, .T.);
#37 = CARTESIAN_POINT('e5_origin', (0.000350000000000, 0.000000000000000, 0.000000000000000));
#38 = DIRECTION('e5_dir', (0.000000000000000, 0.000000000000000, 1.000000000000000));
#39 = VECTOR('e5_vec', #38, 1.0);
#37 = LINE('e5_line', #37, #39);
#40 = EDGE_CURVE('e5', #10, #14, #37, .T.);
#41 = CARTESIAN_POINT('e6_origin', (0.000350000000000, 0.000005000000000, 0.000000000000000));
#42 = DIRECTION('e6_dir', (0.000000000000000, 0.000000000000000, 1.000000000000000));
#43 = VECTOR('e6_vec', #42, 1.0);
#41 = LINE('e6_line', #41, #43);
#44 = EDGE_CURVE('e6', #11, #15, #41, .T.);
#45 = CARTESIAN_POINT('e7_origin', (0.000000000000000, 0.000005000000000, 0.000000000000000));
#46 = DIRECTION('e7_dir', (0.000000000000000, 0.000000000000000, 1.000000000000000));
#47 = VECTOR('e7_vec', #46, 1.0);
#45 = LINE('e7_line', #45, #47);
#48 = EDGE_CURVE('e7', #12, #16, #45, .T.);
#49 = CARTESIAN_POINT('e8_origin', (0.000000000000000, 0.000000000000000, 0.000001500000000));
#50 = DIRECTION('e8_dir', (1.000000000000000, 0.000000000000000, 0.000000000000000));
#51 = VECTOR('e8_vec', #50, 1.0);
#49 = LINE('e8_line', #49, #51);
#52 = EDGE_CURVE('e8', #13, #14, #49, .T.);
#53 = CARTESIAN_POINT('e9_origin', (0.000350000000000, 0.000000000000000, 0.000001500000000));
#54 = DIRECTION('e9_dir', (0.000000000000000, 1.000000000000000, 0.000000000000000));
#55 = VECTOR('e9_vec', #54, 1.0);
#53 = LINE('e9_line', #53, #55);
#56 = EDGE_CURVE('e9', #14, #15, #53, .T.);
#57 = CARTESIAN_POINT('e10_origin', (0.000350000000000, 0.000005000000000, 0.000001500000000));
#58 = DIRECTION('e10_dir', (-1.000000000000000, 0.000000000000000, 0.000000000000000));
#59 = VECTOR('e10_vec', #58, 1.0);
#57 = LINE('e10_line', #57, #59);
#60 = EDGE_CURVE('e10', #15, #16, #57, .T.);
#61 = CARTESIAN_POINT('e11_origin', (0.000000000000000, 0.000005000000000, 0.000001500000000));
#62 = DIRECTION('e11_dir', (0.000000000000000, -1.000000000000000, 0.000000000000000));
#63 = VECTOR('e11_vec', #62, 1.0);
#61 = LINE('e11_line', #61, #63);
#64 = EDGE_CURVE('e11', #16, #13, #61, .T.);
#65 = ORIENTED_EDGE('', *, *, #32, .F.);
#66 = ORIENTED_EDGE('', *, *, #28, .F.);
#67 = ORIENTED_EDGE('', *, *, #24, .F.);
#68 = ORIENTED_EDGE('', *, *, #20, .F.);
#69 = EDGE_LOOP('', (#65, #66, #67, #68));
#70 = FACE_OUTER_BOUND('', #69, .T.);
#71 = CARTESIAN_POINT('f0_origin', (0.000000000000000, 0.000000000000000, 0.000000000000000));
#72 = DIRECTION('f0_normal', (0.000000000000000, 0.000000000000000, -1.000000000000000));
#73 = DIRECTION('f0_ref', (1.000000000000000, 0.000000000000000, 0.000000000000000));
#74 = AXIS2_PLACEMENT_3D('f0_axis', #71, #72, #73);
#75 = PLANE('f0', #74);
#76 = ADVANCED_FACE('f0', (#70), #75, .T.);
#77 = ORIENTED_EDGE('', *, *, #52, .T.);
#78 = ORIENTED_EDGE('', *, *, #56, .T.);
#79 = ORIENTED_EDGE('', *, *, #60, .T.);
#80 = ORIENTED_EDGE('', *, *, #64, .T.);
#81 = EDGE_LOOP('', (#77, #78, #79, #80));
#82 = FACE_OUTER_BOUND('', #81, .T.);
#83 = CARTESIAN_POINT('f1_origin', (0.000000000000000, 0.000000000000000, 0.000001500000000));
#84 = DIRECTION('f1_normal', (0.000000000000000, 0.000000000000000, 1.000000000000000));
#85 = DIRECTION('f1_ref', (1.000000000000000, 0.000000000000000, 0.000000000000000));
#86 = AXIS2_PLACEMENT_3D('f1_axis', #83, #84, #85);
#87 = PLANE('f1', #86);
#88 = ADVANCED_FACE('f1', (#82), #87, .T.);
#89 = ORIENTED_EDGE('', *, *, #20, .T.);
#90 = ORIENTED_EDGE('', *, *, #40, .T.);
#91 = ORIENTED_EDGE('', *, *, #52, .F.);
#92 = ORIENTED_EDGE('', *, *, #36, .F.);
#93 = EDGE_LOOP('', (#89, #90, #91, #92));
#94 = FACE_OUTER_BOUND('', #93, .T.);
#95 = CARTESIAN_POINT('f2_origin', (0.000000000000000, 0.000000000000000, 0.000000000000000));
#96 = DIRECTION('f2_normal', (0.000000000000000, -1.000000000000000, 0.000000000000000));
#97 = DIRECTION('f2_ref', (1.000000000000000, 0.000000000000000, 0.000000000000000));
#98 = AXIS2_PLACEMENT_3D('f2_axis', #95, #96, #97);
#99 = PLANE('f2', #98);
#100 = ADVANCED_FACE('f2', (#94), #99, .T.);
#101 = ORIENTED_EDGE('', *, *, #48, .T.);
#102 = ORIENTED_EDGE('', *, *, #60, .F.);
#103 = ORIENTED_EDGE('', *, *, #44, .F.);
#104 = ORIENTED_EDGE('', *, *, #28, .T.);
#105 = EDGE_LOOP('', (#101, #102, #103, #104));
#106 = FACE_OUTER_BOUND('', #105, .T.);
#107 = CARTESIAN_POINT('f3_origin', (0.000000000000000, 0.000005000000000, 0.000000000000000));
#108 = DIRECTION('f3_normal', (0.000000000000000, 1.000000000000000, 0.000000000000000));
#109 = DIRECTION('f3_ref', (1.000000000000000, 0.000000000000000, 0.000000000000000));
#110 = AXIS2_PLACEMENT_3D('f3_axis', #107, #108, #109);
#111 = PLANE('f3', #110);
#112 = ADVANCED_FACE('f3', (#106), #111, .T.);
#113 = ORIENTED_EDGE('', *, *, #36, .T.);
#114 = ORIENTED_EDGE('', *, *, #64, .F.);
#115 = ORIENTED_EDGE('', *, *, #48, .F.);
#116 = ORIENTED_EDGE('', *, *, #32, .T.);
#117 = EDGE_LOOP('', (#113, #114, #115, #116));
#118 = FACE_OUTER_BOUND('', #117, .T.);
#119 = CARTESIAN_POINT('f4_origin', (0.000000000000000, 0.000000000000000, 0.000000000000000));
#120 = DIRECTION('f4_normal', (-1.000000000000000, 0.000000000000000, 0.000000000000000));
#121 = DIRECTION('f4_ref', (0.000000000000000, 1.000000000000000, 0.000000000000000));
#122 = AXIS2_PLACEMENT_3D('f4_axis', #119, #120, #121);
#123 = PLANE('f4', #122);
#124 = ADVANCED_FACE('f4', (#118), #123, .T.);
#125 = ORIENTED_EDGE('', *, *, #24, .T.);
#126 = ORIENTED_EDGE('', *, *, #44, .T.);
#127 = ORIENTED_EDGE('', *, *, #56, .F.);
#128 = ORIENTED_EDGE('', *, *, #40, .F.);
#129 = EDGE_LOOP('', (#125, #126, #127, #128));
#130 = FACE_OUTER_BOUND('', #129, .T.);
#131 = CARTESIAN_POINT('f5_origin', (0.000350000000000, 0.000000000000000, 0.000000000000000));
#132 = DIRECTION('f5_normal', (1.000000000000000, 0.000000000000000, 0.000000000000000));
#133 = DIRECTION('f5_ref', (0.000000000000000, 1.000000000000000, 0.000000000000000));
#134 = AXIS2_PLACEMENT_3D('f5_axis', #131, #132, #133);
#135 = PLANE('f5', #134);
#136 = ADVANCED_FACE('f5', (#130), #135, .T.);
#137 = CLOSED_SHELL('waveguide_shell', (#76, #88, #100, #112, #124, #136));
#138 = MANIFOLD_SOLID_BREP('sapphire_waveguide', #137);
ENDSEC;
END-ISO-10303-21;
